HIERARCHY
ROOT Root
{
  OFFSET 0.0 0.0 0.0
  CHANNELS 6 Xposition Yposition Zposition Zrotation Yrotation Xrotation
  JOINT Hips
  {
    OFFSET 0.0 100.0 0.0
    CHANNELS 6 Xposition Yposition Zposition Zrotation Yrotation Xrotation
    JOINT Spine1
    {
      OFFSET -0.013727 5.003763 -0.053727
      CHANNELS 3 Zrotation Yrotation Xrotation
      JOINT Spine2
      {
        OFFSET -0.0 7.125301 -0.029825
        CHANNELS 3 Zrotation Yrotation Xrotation
        JOINT Chest
        {
          OFFSET -1e-06 7.550063 -0.815971
          CHANNELS 3 Zrotation Yrotation Xrotation
          JOINT Neck1
          {
            OFFSET -0.181677 26.311295 -0.553348
            CHANNELS 3 Zrotation Yrotation Xrotation
            JOINT Neck2
            {
              OFFSET -3e-06 7.709397 2.302585
              CHANNELS 3 Zrotation Yrotation Xrotation
              JOINT Head
              {
                OFFSET -5e-06 6.128916 1.953709
                CHANNELS 3 Zrotation Yrotation Xrotation
                JOINT HeadEnd
                {
                  OFFSET 0.003598 16.065403 -1.835379
                  CHANNELS 3 Zrotation Yrotation Xrotation
                }
                JOINT Jaw
                {
                  OFFSET 0.002637 0.475592 3.094941
                  CHANNELS 3 Zrotation Yrotation Xrotation
                }
                JOINT LeftEye
                {
                  OFFSET 3.206381 5.380205 7.586883
                  CHANNELS 3 Zrotation Yrotation Xrotation
                }
                JOINT RightEye
                {
                  OFFSET -3.22244 5.361869 7.558234
                  CHANNELS 3 Zrotation Yrotation Xrotation
                }
              }
            }
          }
          JOINT LeftShoulder
          {
            OFFSET 1.621652 23.237164 5.113413
            CHANNELS 3 Zrotation Yrotation Xrotation
            JOINT LeftArm
            {
              OFFSET 14.919846 2e-06 -5.502326
              CHANNELS 3 Zrotation Yrotation Xrotation
              JOINT LeftForeArm
              {
                OFFSET 28.739307 0.0 -0.002588
                CHANNELS 3 Zrotation Yrotation Xrotation
                JOINT LeftHand
                {
                  OFFSET 27.093981 -1e-06 0.002609
                  CHANNELS 3 Zrotation Yrotation Xrotation
                  JOINT LeftHandThumb1
                  {
                    OFFSET 2.276482 -1.392045 3.191413
                    CHANNELS 3 Zrotation Yrotation Xrotation
                    JOINT LeftHandThumb2
                    {
                      OFFSET 4.012836 -1.828127 1.641654
                      CHANNELS 3 Zrotation Yrotation Xrotation
                      JOINT LeftHandThumb3
                      {
                        OFFSET 2.798515 0.0 -3e-06
                        CHANNELS 3 Zrotation Yrotation Xrotation
                        JOINT LeftHandThumbEnd
                        {
                          OFFSET 3.180793 -4e-06 4e-06
                          CHANNELS 3 Zrotation Yrotation Xrotation
                        }
                      }
                    }
                  }
                  JOINT LeftHandIndex1
                  {
                    OFFSET 3.247555 -0.531998 2.296169
                    CHANNELS 3 Zrotation Yrotation Xrotation
                    JOINT LeftHandIndex2
                    {
                      OFFSET 6.364578 0.01206 0.1786
                      CHANNELS 3 Zrotation Yrotation Xrotation
                      JOINT LeftHandIndex3
                      {
                        OFFSET 3.662364 0.0 0.0
                        CHANNELS 3 Zrotation Yrotation Xrotation
                        JOINT LeftHandIndex4
                        {
                          OFFSET 2.329242 4e-06 4e-06
                          CHANNELS 3 Zrotation Yrotation Xrotation
                          JOINT LeftHandIndexEnd
                          {
                            OFFSET 2.759615 -0.180537 -0.113024
                            CHANNELS 3 Zrotation Yrotation Xrotation
                          }
                        }
                      }
                    }
                  }
                  JOINT LeftHandMiddle1
                  {
                    OFFSET 3.163495 0.240981 1.000332
                    CHANNELS 3 Zrotation Yrotation Xrotation
                    JOINT LeftHandMiddle2
                    {
                      OFFSET 6.19078 -0.259278 -1.002548
                      CHANNELS 3 Zrotation Yrotation Xrotation
                      JOINT LeftHandMiddle3
                      {
                        OFFSET 4.35652 -4e-06 -1e-06
                        CHANNELS 3 Zrotation Yrotation Xrotation
                        JOINT LeftHandMiddle4
                        {
                          OFFSET 2.996877 -8e-06 0.0
                          CHANNELS 3 Zrotation Yrotation Xrotation
                          JOINT LeftHandMiddleEnd
                          {
                            OFFSET 2.304287 -0.294569 -0.031741
                            CHANNELS 3 Zrotation Yrotation Xrotation
                          }
                        }
                      }
                    }
                  }
                  JOINT LeftHandRing1
                  {
                    OFFSET 2.882643 -0.053652 -0.322543
                    CHANNELS 3 Zrotation Yrotation Xrotation
                    JOINT LeftHandRing2
                    {
                      OFFSET 5.854541 -0.486202 -1.373841
                      CHANNELS 3 Zrotation Yrotation Xrotation
                      JOINT LeftHandRing3
                      {
                        OFFSET 4.350578 0.0 3e-06
                        CHANNELS 3 Zrotation Yrotation Xrotation
                        JOINT LeftHandRing4
                        {
                          OFFSET 2.651321 7e-06 2e-06
                          CHANNELS 3 Zrotation Yrotation Xrotation
                          JOINT LeftHandRingEnd
                          {
                            OFFSET 1.936105 0.077687 -7.1e-05
                            CHANNELS 3 Zrotation Yrotation Xrotation
                          }
                        }
                      }
                    }
                  }
                  JOINT LeftHandPinky1
                  {
                    OFFSET 2.8655 -0.310005 -1.600378
                    CHANNELS 3 Zrotation Yrotation Xrotation
                    JOINT LeftHandPinky2
                    {
                      OFFSET 5.087849 -1.331141 -1.77123
                      CHANNELS 3 Zrotation Yrotation Xrotation
                      JOINT LeftHandPinky3
                      {
                        OFFSET 3.070974 4e-06 0.0
                        CHANNELS 3 Zrotation Yrotation Xrotation
                        JOINT LeftHandPinky4
                        {
                          OFFSET 1.549672 0.0 1e-06
                          CHANNELS 3 Zrotation Yrotation Xrotation
                          JOINT LeftHandPinkyEnd
                          {
                            OFFSET 1.944893 -0.157802 0.057219
                            CHANNELS 3 Zrotation Yrotation Xrotation
                          }
                        }
                      }
                    }
                  }
                }
              }
            }
          }
          JOINT RightShoulder
          {
            OFFSET -1.380118 23.180309 5.214158
            CHANNELS 3 Zrotation Yrotation Xrotation
            JOINT RightArm
            {
              OFFSET -15.037196 1.2e-05 -5.545604
              CHANNELS 3 Zrotation Yrotation Xrotation
              JOINT RightForeArm
              {
                OFFSET -28.736639 2e-06 -0.002597
                CHANNELS 3 Zrotation Yrotation Xrotation
                JOINT RightHand
                {
                  OFFSET -27.133619 -0.0 0.002613
                  CHANNELS 3 Zrotation Yrotation Xrotation
                  JOINT RightHandThumb1
                  {
                    OFFSET -2.274032 -1.383988 3.163127
                    CHANNELS 3 Zrotation Yrotation Xrotation
                    JOINT RightHandThumb2
                    {
                      OFFSET -4.011429 -1.827466 1.640914
                      CHANNELS 3 Zrotation Yrotation Xrotation
                      JOINT RightHandThumb3
                      {
                        OFFSET -2.794935 -4e-06 -3e-06
                        CHANNELS 3 Zrotation Yrotation Xrotation
                        JOINT RightHandThumbEnd
                        {
                          OFFSET -3.183852 4e-06 1e-06
                          CHANNELS 3 Zrotation Yrotation Xrotation
                        }
                      }
                    }
                  }
                  JOINT RightHandIndex1
                  {
                    OFFSET -3.253266 -0.520057 2.282866
                    CHANNELS 3 Zrotation Yrotation Xrotation
                    JOINT RightHandIndex2
                    {
                      OFFSET -6.341917 0.012471 0.178266
                      CHANNELS 3 Zrotation Yrotation Xrotation
                      JOINT RightHandIndex3
                      {
                        OFFSET -3.654871 -8e-06 -0.0
                        CHANNELS 3 Zrotation Yrotation Xrotation
                        JOINT RightHandIndex4
                        {
                          OFFSET -2.327586 0.0 1e-06
                          CHANNELS 3 Zrotation Yrotation Xrotation
                          JOINT RightHandIndexEnd
                          {
                            OFFSET -2.76179 -0.180656 -0.113078
                            CHANNELS 3 Zrotation Yrotation Xrotation
                          }
                        }
                      }
                    }
                  }
                  JOINT RightHandMiddle1
                  {
                    OFFSET -3.168106 0.246593 1.00103
                    CHANNELS 3 Zrotation Yrotation Xrotation
                    JOINT RightHandMiddle2
                    {
                      OFFSET -6.180828 -0.258836 -1.000895
                      CHANNELS 3 Zrotation Yrotation Xrotation
                      JOINT RightHandMiddle3
                      {
                        OFFSET -4.348901 0.0 -0.0
                        CHANNELS 3 Zrotation Yrotation Xrotation
                        JOINT RightHandMiddle4
                        {
                          OFFSET -3.00024 -4e-06 -2e-06
                          CHANNELS 3 Zrotation Yrotation Xrotation
                          JOINT RightHandMiddleEnd
                          {
                            OFFSET -2.30252 -0.29437 -0.031706
                            CHANNELS 3 Zrotation Yrotation Xrotation
                          }
                        }
                      }
                    }
                  }
                  JOINT RightHandRing1
                  {
                    OFFSET -2.88569 -0.067952 -0.308858
                    CHANNELS 3 Zrotation Yrotation Xrotation
                    JOINT RightHandRing2
                    {
                      OFFSET -5.854198 -0.48613 -1.373731
                      CHANNELS 3 Zrotation Yrotation Xrotation
                      JOINT RightHandRing3
                      {
                        OFFSET -4.33881 -4e-06 -0.0
                        CHANNELS 3 Zrotation Yrotation Xrotation
                        JOINT RightHandRing4
                        {
                          OFFSET -2.654903 -4e-06 4e-06
                          CHANNELS 3 Zrotation Yrotation Xrotation
                          JOINT RightHandRingEnd
                          {
                            OFFSET -1.933568 0.077527 -5.2e-05
                            CHANNELS 3 Zrotation Yrotation Xrotation
                          }
                        }
                      }
                    }
                  }
                  JOINT RightHandPinky1
                  {
                    OFFSET -2.866425 -0.342796 -1.584145
                    CHANNELS 3 Zrotation Yrotation Xrotation
                    JOINT RightHandPinky2
                    {
                      OFFSET -5.091371 -1.332055 -1.772385
                      CHANNELS 3 Zrotation Yrotation Xrotation
                      JOINT RightHandPinky3
                      {
                        OFFSET -3.062664 -4e-06 1e-06
                        CHANNELS 3 Zrotation Yrotation Xrotation
                        JOINT RightHandPinky4
                        {
                          OFFSET -1.546529 4e-06 -2e-06
                          CHANNELS 3 Zrotation Yrotation Xrotation
                          JOINT RightHandPinkyEnd
                          {
                            OFFSET -1.945119 -0.157718 0.057211
                            CHANNELS 3 Zrotation Yrotation Xrotation
                          }
                        }
                      }
                    }
                  }
                }
              }
            }
          }
        }
      }
    }
    JOINT LeftLeg
    {
      OFFSET 10.043214 -8.434526 2.595655
      CHANNELS 3 Zrotation Yrotation Xrotation
      JOINT LeftShin
      {
        OFFSET -1e-06 -43.221752 -0.802913
        CHANNELS 3 Zrotation Yrotation Xrotation
        JOINT LeftFoot
        {
          OFFSET 1e-06 -42.155094 -3.481523
          CHANNELS 3 Zrotation Yrotation Xrotation
          JOINT LeftToeBase
          {
            OFFSET 0.0 -5.059472 13.231529
            CHANNELS 3 Zrotation Yrotation Xrotation
            JOINT LeftToeEnd
            {
              OFFSET -0.009607 -1.647619 6.513017
              CHANNELS 3 Zrotation Yrotation Xrotation
            }
          }
        }
      }
    }
    JOINT RightLeg
    {
      OFFSET -10.047278 -8.29526 2.620317
      CHANNELS 3 Zrotation Yrotation Xrotation
      JOINT RightShin
      {
        OFFSET 1e-06 -43.362206 -0.805556
        CHANNELS 3 Zrotation Yrotation Xrotation
        JOINT RightFoot
        {
          OFFSET 2e-06 -42.117393 -3.478398
          CHANNELS 3 Zrotation Yrotation Xrotation
          JOINT RightToeBase
          {
            OFFSET -0.0 -5.079609 13.284196
            CHANNELS 3 Zrotation Yrotation Xrotation
            JOINT RightToeEnd
            {
              OFFSET 0.009532 -1.634378 6.460591
              CHANNELS 3 Zrotation Yrotation Xrotation
            }
          }
        }
      }
    }
  }
}
MOTION
Frames: 4
Frame Time: 0.03333333333333333
-0.102038 0.0 0.14666 0.0 0.010292 0.0 0.0 100.166367 0.0 0.003461 -0.000127 2.225814 0.21367 -0.203264 -3.645447 -0.54182 -0.286913 -6.079348 -0.449945 -2.592857 11.470554 0.278801 2.633706 6.264999 -0.981336 -0.868474 -3.536805 0.097116 -1.388204 -5.464473 7.7e-05 -2.3e-05 6e-06 0.022377 -0.104556 0.011321 0.780777 -3.813827 -10.578177 -0.73665 3.613871 -10.544191 -13.954627 -7.922441 12.353436 -58.573757 1.862339 14.681101 0.631592 -38.621159 0.012768 -2.558177 -1.105118 5.098563 -5.882112 9.861297 0.70259 -10.936884 -0.360577 7.156208 2e-06 8.774836 -2e-06 -16.000336 18.416216 6.126746 -1.844035 2.498506 -2.507279 -10.163611 4.678947 4.621109 -20.976046 -8e-06 2e-06 -21.226309 2.451695 -3.594001 1e-06 -4e-06 -2e-06 -1.362683 2.2408 -0.746322 -21.334938 0.584906 3.008322 -13.821229 -5e-06 2e-06 -23.887199 -0.249085 -0.839483 -60.613983 2.791458 -1.246117 -0.294024 1.67969 0.833254 -14.218224 0.093213 1.30058 -34.212086 -0.287571 0.96717 -20.033234 0.964534 1.212845 -1e-06 1e-06 -0.0 -3.440392 0.788234 0.501655 -15.928203 -3.167315 2.999707 -6.338832 -0.0 -1e-06 -18.123466 3.648183 -4.905678 -1e-06 1e-06 -1e-06 21.282478 10.279678 16.423311 52.539326 6.347834 22.639763 -0.143363 35.597301 0.145507 0.318133 5.011363 6.035687 2.243543 -5.255041 -3.180162 14.282905 -0.826595 6.95251 -4e-06 -12.690619 2e-06 16.108776 -18.076143 2.537214 1.665669 -1.955923 -2.878303 4.727802 -4.170592 4.993928 11.020538 3e-06 -1e-06 12.109062 -3.735719 -2.866787 -0.0 -0.0 0.0 1.291986 -1.928549 -1.49809 14.800142 0.567468 3.865611 14.242585 -1.341735 -6.660663 19.631985 0.143929 -0.648244 49.862217 -0.60627 -6.757305 0.353029 -1.511152 -0.03194 20.222815 3.684315 2.316631 18.787294 7e-06 -1e-06 10.751643 -0.479868 1.397908 1e-06 1e-06 -1e-06 3.273812 0.305947 -0.580111 21.486839 11.830393 2.266132 8.162936 2e-06 -2e-06 18.399103 -3.798989 -4.940582 4e-06 -1e-06 -0.0 6.318071 12.693365 -2.644962 0.011224 0.029196 3.883433 -9.194696 -0.845712 -2.360587 1.628781 -2.037531 -1.449278 0.0 -0.0 2e-06 -4.88714 -18.93351 -3.469184 -0.015713 -0.187424 7.111955 8.41948 0.976467 -4.281225 -1.401648 0.911129 -1.130253 -0.0 -0.0 -1e-06 
-0.094626 0.0 0.182903 0.0 0.278376 0.0 0.0 100.19342 0.0 0.030576 -0.000967 2.193302 0.225603 -0.195011 -3.636631 -0.525331 -0.179 -6.072424 -0.495403 -2.623724 11.513326 0.016058 2.787346 6.665719 -0.966667 -0.940298 -3.537956 -0.049309 -1.3781 -5.240904 7.7e-05 -2.2e-05 6e-06 0.020094 -0.082182 0.008691 0.775494 -3.790579 -10.571265 -0.73614 3.635339 -10.538534 -14.07118 -7.835688 12.429637 -58.510201 1.81862 14.291945 0.452019 -38.854553 -0.002104 -2.427639 -1.123648 5.581307 -5.882113 9.861295 0.70259 -10.93688 -0.360574 7.15621 -0.0 8.774833 -0.0 -16.001476 18.361908 6.099081 -1.844035 2.498506 -2.50728 -10.163608 4.67895 4.621108 -20.97604 -2e-06 -1e-06 -21.226307 2.451698 -3.594008 1e-06 -5e-06 -1e-06 -1.362682 2.240802 -0.746322 -21.334934 0.584912 3.008322 -13.821227 -2e-06 -1e-06 -23.887192 -0.249079 -0.839487 -60.524773 2.801874 -1.156441 -0.294026 1.679689 0.833257 -14.218221 0.093217 1.300579 -34.212082 -0.287563 0.967166 -20.033232 0.964535 1.212842 0.0 1e-06 1e-06 -3.440391 0.788235 0.501658 -15.9282 -3.16731 2.999707 -6.338831 -0.0 -2e-06 -18.123465 3.648185 -4.905676 -3e-06 0.0 -0.0 21.157045 10.31171 16.629177 52.375767 6.330746 22.557541 -0.048729 36.962719 0.197242 0.03495 5.172322 6.054697 2.243545 -5.25504 -3.180161 14.282904 -0.826596 6.952505 -3e-06 -12.690616 -1e-06 16.089603 -18.09614 2.515259 1.66567 -1.955924 -2.878301 4.727802 -4.170592 4.993926 11.020538 3e-06 -1e-06 12.109064 -3.735719 -2.866789 0.0 -0.0 -0.0 1.291986 -1.928551 -1.498091 14.800139 0.567469 3.865608 14.242584 -1.341737 -6.660665 19.631985 0.143928 -0.648248 49.864025 -0.614918 -6.773471 0.353029 -1.511151 -0.031941 20.222811 3.684313 2.316631 18.787289 7e-06 -3e-06 10.751639 -0.479868 1.397904 0.0 2e-06 1e-06 3.273811 0.305947 -0.58011 21.486834 11.830386 2.266132 8.162934 2e-06 -3e-06 18.399101 -3.798984 -4.940586 4e-06 -1e-06 -0.0 6.294277 12.460843 -2.3929 -0.002857 -0.01031 3.355117 -9.287302 -0.786464 -2.061669 1.628869 -2.073301 -1.489298 0.0 1e-06 2e-06 -4.944541 -19.020773 -3.066423 -0.015568 -0.183149 6.519165 8.441964 0.811598 -4.088146 -1.406268 0.89547 -1.153511 -0.0 -0.0 -1e-06 
-0.080006 0.0 0.19625 0.0 0.697883 0.0 0.0 100.204277 0.0 0.074982 -0.002327 2.153902 0.245182 -0.20596 -3.638386 -0.510317 -0.0885 -6.078534 -0.52513 -2.569745 11.611941 -0.274177 2.960456 7.245723 -0.960866 -1.005256 -3.573731 -0.241305 -1.384494 -4.874262 7.7e-05 -2.2e-05 6e-06 0.021811 -0.07384 0.003909 0.772036 -3.780489 -10.585122 -0.729474 3.641728 -10.551851 -14.187303 -7.677225 12.507317 -58.437351 1.752928 13.829732 0.19767 -39.154495 0.030072 -2.183797 -1.205486 5.949156 -5.88211 9.861293 0.70259 -10.936878 -0.360574 7.156208 1e-06 8.774831 -1e-06 -16.005386 18.348507 6.071379 -1.844034 2.498506 -2.507278 -10.163609 4.678948 4.621107 -20.976038 -3e-06 0.0 -21.226303 2.4517 -3.594003 0.0 -6e-06 -0.0 -1.362684 2.240802 -0.746324 -21.33493 0.58491 3.008323 -13.821225 -2e-06 0.0 -23.88719 -0.249081 -0.839484 -60.419971 2.844952 -1.182281 -0.294026 1.679688 0.833255 -14.218219 0.093215 1.300578 -34.212074 -0.287566 0.967168 -20.033228 0.964532 1.212843 -1e-06 1e-06 -0.0 -3.44039 0.788233 0.501657 -15.928196 -3.16731 2.999705 -6.338829 -1e-06 -1e-06 -18.123459 3.648184 -4.905673 -3e-06 1e-06 -1e-06 20.983269 10.430734 16.842207 52.166084 6.376321 22.628572 -0.021026 39.072868 0.190492 -0.561776 5.422493 6.511944 2.243542 -5.255039 -3.18016 14.282898 -0.826597 6.952503 -2e-06 -12.690609 1e-06 16.08795 -18.093157 2.497318 1.665667 -1.955922 -2.878298 4.7278 -4.17059 4.993926 11.020531 2e-06 -3e-06 12.109058 -3.735718 -2.866788 1e-06 -0.0 -0.0 1.291986 -1.92855 -1.498088 14.800134 0.567468 3.86561 14.24258 -1.341737 -6.660664 19.631975 0.143927 -0.648249 49.772095 -0.661715 -6.798528 0.353029 -1.511151 -0.03194 20.222801 3.684309 2.316628 18.787285 3e-06 -4e-06 10.751633 -0.479869 1.397904 0.0 2e-06 0.0 3.273808 0.305947 -0.580112 21.486824 11.830381 2.266131 8.16293 1e-06 -3e-06 18.399096 -3.798984 -4.94058 3e-06 -1e-06 -2e-06 6.239747 12.081167 -2.341119 -0.007354 -0.038306 3.161066 -9.313437 -0.78377 -1.90907 1.628656 -2.090829 -1.48317 -0.0 0.0 2e-06 -5.034065 -19.193449 -2.789702 -0.009045 -0.181268 6.24162 8.512277 0.583637 -4.042873 -1.407696 0.901987 -1.128317 0.0 1e-06 -1e-06 
-0.066011 0.0 0.169175 0.0 1.229036 0.0 0.0 100.203979 0.0 0.120975 -0.003619 2.106438 0.272585 -0.223891 -3.619162 -0.490816 0.015607 -6.099103 -0.532595 -2.440671 11.739737 -0.584365 3.146323 8.000927 -0.954386 -1.008526 -3.606217 -0.444285 -1.364358 -4.475307 7.7e-05 -2.2e-05 6e-06 0.024605 -0.076196 -0.00167 0.768386 -3.781897 -10.604405 -0.720498 3.638375 -10.574703 -14.305536 -7.460392 12.599436 -58.35162 1.644438 13.402541 -0.009947 -39.545616 0.076136 -1.78998 -1.390591 6.181402 -5.882108 9.861288 0.702591 -10.936874 -0.360575 7.156206 1e-06 8.774829 0.0 -15.964827 18.32123 6.046103 -1.844033 2.498506 -2.507278 -10.163603 4.678944 4.62111 -20.976027 -4e-06 3e-06 -21.226295 2.451696 -3.594003 2e-06 -6e-06 -2e-06 -1.362682 2.240797 -0.746323 -21.334921 0.584911 3.008325 -13.82122 -2e-06 0.0 -23.887178 -0.249079 -0.839484 -60.306404 2.866169 -1.247562 -0.294024 1.679689 0.833257 -14.218214 0.093215 1.300579 -34.212059 -0.287563 0.96717 -20.033218 0.964536 1.212843 -1e-06 1e-06 -0.0 -3.44039 0.788235 0.501657 -15.928189 -3.16731 2.999708 -6.338828 -1e-06 0.0 -18.123447 3.648184 -4.905672 -3e-06 1e-06 -2e-06 20.72584 10.615078 17.03953 51.903862 6.597693 22.771723 -0.090444 42.049232 0.124507 -1.44515 5.925688 7.247791 2.24354 -5.255039 -3.180158 14.282896 -0.826593 6.952506 -5e-06 -12.690611 1e-06 16.075308 -18.094624 2.475246 1.665668 -1.955923 -2.878299 4.7278 -4.170588 4.993929 11.020529 4e-06 -1e-06 12.109055 -3.735715 -2.866785 0.0 -1e-06 -2e-06 1.291986 -1.92855 -1.498089 14.800132 0.56747 3.865608 14.242577 -1.341734 -6.660659 19.631975 0.143929 -0.648244 49.578922 -0.741048 -6.816439 0.35303 -1.511152 -0.03194 20.222799 3.684314 2.31663 18.787281 6e-06 1e-06 10.751632 -0.479869 1.397907 1e-06 1e-06 0.0 3.27381 0.305947 -0.58011 21.486824 11.830384 2.266134 8.16293 1e-06 -2e-06 18.399088 -3.798988 -4.940577 3e-06 -2e-06 -1e-06 6.176556 11.663393 -2.450596 -0.009881 -0.063631 3.221336 -9.322903 -0.880266 -1.856114 1.627569 -2.089128 -1.481805 -0.0 0.0 2e-06 -5.123225 -19.390003 -2.619893 -0.005068 -0.189588 6.195415 8.609414 0.296657 -4.100324 -1.408021 0.910289 -1.125487 -0.0 1e-06 -1e-06 
